<svg width="888" height="195" viewBox="0 0 888 195" fill="none" xmlns="http://www.w3.org/2000/svg">
<rect width="195" height="195" rx="50" fill="white"/>
<rect x="130.399" y="1" width="145.083" height="145.083" rx="72.5415" transform="rotate(64 130.399 1)" fill="#1A1A1A"/>
<path d="M134.77 38.9658C136.377 36.8336 138.485 35.1305 140.907 34.0074C143.329 32.8844 145.991 32.376 148.657 32.5274C151.322 32.6788 153.909 33.4852 156.189 34.8752C158.468 36.2652 160.37 38.196 161.725 40.4964C163.08 42.7968 163.847 45.396 163.957 48.0635C164.068 50.7311 163.519 53.3848 162.359 55.7895C161.199 58.1943 159.464 60.2758 157.308 61.8499C155.151 63.4239 152.64 64.4418 149.996 64.8133L147.736 48.7363L134.77 38.9658Z" fill="#1A1A1A"/>
<rect x="97" y="114.57" width="41.1422" height="87.1599" rx="20" transform="rotate(-30 97 114.57)" fill="#1A1A1A"/>
<path d="M131.651 74.0162C126.612 66.5465 119.317 60.8837 110.831 57.8552C102.345 54.8267 93.1134 54.5913 84.4842 57.1833C75.8549 59.7753 68.2807 65.0589 62.8681 72.2621C57.4555 79.4653 54.4882 88.2106 54.3998 97.2203C54.3113 106.23 57.1064 115.032 62.3766 122.34C67.6468 129.648 75.1159 135.079 83.6926 137.84C92.2693 140.601 101.504 140.547 110.048 137.685C118.592 134.824 125.996 129.306 131.18 121.936L96.6347 97.6348L131.651 74.0162Z" fill="white"/>
<path d="M260.66 115.173H281.245L291.593 128.486L301.774 140.344L320.96 164.397H298.361L285.16 148.176L278.392 138.554L260.66 115.173ZM322.694 97.72C322.694 110.213 320.326 120.841 315.59 129.604C310.891 138.368 304.477 145.062 296.348 149.686C288.255 154.273 279.156 156.566 269.05 156.566C258.87 156.566 249.733 154.254 241.641 149.63C233.548 145.006 227.153 138.312 222.454 129.548C217.755 120.785 215.406 110.175 215.406 97.72C215.406 85.2273 217.755 74.5992 222.454 65.8356C227.153 57.0721 233.548 50.3969 241.641 45.81C249.733 41.1858 258.87 38.8738 269.05 38.8738C279.156 38.8738 288.255 41.1858 296.348 45.81C304.477 50.3969 310.891 57.0721 315.59 65.8356C320.326 74.5992 322.694 85.2273 322.694 97.72ZM298.138 97.72C298.138 89.6277 296.926 82.8033 294.502 77.2469C292.115 71.6904 288.74 67.4765 284.377 64.605C280.014 61.7336 274.905 60.2978 269.05 60.2978C263.195 60.2978 258.086 61.7336 253.723 64.605C249.36 67.4765 245.967 71.6904 243.543 77.2469C241.156 82.8033 239.963 89.6277 239.963 97.72C239.963 105.812 241.156 112.637 243.543 118.193C245.967 123.75 249.36 127.964 253.723 130.835C258.086 133.706 263.195 135.142 269.05 135.142C274.905 135.142 280.014 133.706 284.377 130.835C288.74 127.964 292.115 123.75 294.502 118.193C296.926 112.637 298.138 105.812 298.138 97.72ZM395.287 118.417V69.08H419.116V155H396.238V139.393H395.343C393.404 144.428 390.178 148.474 385.666 151.532C381.191 154.59 375.728 156.119 369.276 156.119C363.533 156.119 358.48 154.814 354.117 152.203C349.754 149.593 346.342 145.882 343.881 141.072C341.457 136.261 340.226 130.499 340.189 123.787V69.08H364.018V119.536C364.055 124.607 365.416 128.616 368.101 131.562C370.786 134.508 374.385 135.981 378.897 135.981C381.769 135.981 384.454 135.329 386.952 134.023C389.451 132.681 391.465 130.704 392.994 128.094C394.56 125.484 395.324 122.258 395.287 118.417ZM438.177 155V69.08H462.007V155H438.177ZM450.148 58.0044C446.605 58.0044 443.566 56.8297 441.03 54.4803C438.531 52.0937 437.282 49.2408 437.282 45.9219C437.282 42.6402 438.531 39.8247 441.03 37.4753C443.566 35.0887 446.605 33.8953 450.148 33.8953C453.69 33.8953 456.711 35.0887 459.21 37.4753C461.745 39.8247 463.013 42.6402 463.013 45.9219C463.013 49.2408 461.745 52.0937 459.21 54.4803C456.711 56.8297 453.69 58.0044 450.148 58.0044ZM504.925 40.44V155H481.095V40.44H504.925ZM547.843 40.44V155H524.013V40.44H547.843ZM566.931 155V69.08H590.761V155H566.931ZM578.902 58.0044C575.359 58.0044 572.32 56.8297 569.784 54.4803C567.286 52.0937 566.036 49.2408 566.036 45.9219C566.036 42.6402 567.286 39.8247 569.784 37.4753C572.32 35.0887 575.359 33.8953 578.902 33.8953C582.445 33.8953 585.465 35.0887 587.964 37.4753C590.5 39.8247 591.768 42.6402 591.768 45.9219C591.768 49.2408 590.5 52.0937 587.964 54.4803C585.465 56.8297 582.445 58.0044 578.902 58.0044ZM609.849 187.22V69.08H633.343V83.5119H634.406C635.45 81.1998 636.96 78.8504 638.937 76.4638C640.951 74.0398 643.561 72.0261 646.768 70.4225C650.012 68.7817 654.04 67.9613 658.851 67.9613C665.116 67.9613 670.896 69.6021 676.191 72.8838C681.487 76.1281 685.719 81.032 688.889 87.5953C692.059 94.1214 693.644 102.307 693.644 112.152C693.644 121.736 692.096 129.828 689.001 136.429C685.943 142.992 681.766 147.971 676.471 151.364C671.213 154.72 665.321 156.398 658.795 156.398C654.17 156.398 650.236 155.634 646.992 154.105C643.785 152.576 641.156 150.656 639.105 148.343C637.054 145.994 635.487 143.626 634.406 141.239H633.679V187.22H609.849ZM633.175 112.04C633.175 117.149 633.884 121.605 635.301 125.409C636.718 129.213 638.769 132.178 641.454 134.303C644.139 136.391 647.402 137.436 651.243 137.436C655.121 137.436 658.403 136.373 661.088 134.247C663.773 132.084 665.805 129.101 667.185 125.297C668.602 121.456 669.311 117.037 669.311 112.04C669.311 107.08 668.621 102.717 667.241 98.9506C665.861 95.1842 663.829 92.2381 661.144 90.1125C658.459 87.9869 655.159 86.9241 651.243 86.9241C647.365 86.9241 644.083 87.9496 641.398 90.0006C638.75 92.0517 636.718 94.9604 635.301 98.7269C633.884 102.493 633.175 106.931 633.175 112.04ZM733.359 105.328V155H709.53V40.44H732.688V84.2391H733.695C735.634 79.1674 738.767 75.1958 743.092 72.3244C747.418 69.4156 752.844 67.9613 759.37 67.9613C765.337 67.9613 770.539 69.2665 774.977 71.8769C779.452 74.45 782.92 78.1605 785.381 83.0084C787.88 87.8191 789.11 93.5806 789.073 100.293V155H765.244V104.544C765.281 99.249 763.938 95.1282 761.216 92.1822C758.531 89.2362 754.765 87.7631 749.917 87.7631C746.672 87.7631 743.801 88.453 741.302 89.8328C738.841 91.2126 736.902 93.2264 735.485 95.8741C734.105 98.4845 733.397 101.636 733.359 105.328ZM819.461 187.22C816.44 187.22 813.606 186.978 810.959 186.493C808.348 186.045 806.185 185.467 804.47 184.759L809.84 166.971C812.637 167.828 815.154 168.294 817.391 168.369C819.666 168.444 821.624 167.922 823.265 166.803C824.943 165.684 826.304 163.782 827.348 161.097L828.747 157.461L797.925 69.08H822.985L840.773 132.178H841.668L859.624 69.08H884.852L851.457 164.286C849.854 168.91 847.672 172.937 844.913 176.368C842.19 179.836 838.741 182.503 834.564 184.367C830.388 186.269 825.353 187.22 819.461 187.22Z" fill="#1A1A1A"/>
</svg>
